<?xml version="1.0" encoding="UTF-8"?>
<svg version="1.1" xmlns="http://www.w3.org/2000/svg" width="50" height="50">
<path d="M0 0 C0.825 -0.01289062 1.65 -0.02578125 2.5 -0.0390625 C6.23617605 0.95335926 7.69985069 2.54733543 10 5.625 C10.45040709 8.57042533 10.61676045 10.83629612 10.5 13.75 C10.50386719 14.82314453 10.50386719 14.82314453 10.5078125 15.91796875 C10.4104277 21.1280554 10.4104277 21.1280554 8.48046875 23.46484375 C7.99191406 23.84769531 7.50335938 24.23054688 7 24.625 C6.60508102 27.16214314 6.60508102 27.16214314 8 29.625 C9.93179257 30.82797992 11.91429069 31.73336977 13.98828125 32.66796875 C16.6569185 33.93751463 18.29195507 35.20526968 20 37.625 C20 39.605 20 41.585 20 43.625 C6.8 43.625 -6.4 43.625 -20 43.625 C-20 37.625 -20 37.625 -18.6796875 35.83203125 C-18.08414062 35.37183594 -17.48859375 34.91164062 -16.875 34.4375 C-15.92560547 33.70080078 -15.92560547 33.70080078 -14.95703125 32.94921875 C-12.41777207 31.23103739 -9.80520185 29.85655203 -7 28.625 C-7.57452746 24.69424356 -7.57452746 24.69424356 -10 21.625 C-10.28013291 18.96816055 -10.41618681 16.47191234 -10.4375 13.8125 C-10.47037109 13.10029297 -10.50324219 12.38808594 -10.53710938 11.65429688 C-10.57708445 7.72583705 -10.15052932 5.82703318 -7.78515625 2.65234375 C-4.84494543 0.51213419 -3.57776575 -0.05590259 0 0 Z " fill="#000000" transform="translate(25,2.375)"/>
</svg>
