<?xml version="1.0" encoding="UTF-8"?>
<svg version="1.1" xmlns="http://www.w3.org/2000/svg" width="50" height="50">
<path d="M0 0 C5.94 0 11.88 0 18 0 C18 1.32 18 2.64 18 4 C19.32 4 20.64 4 22 4 C22 17.86 22 31.72 22 46 C18.37 46 14.74 46 11 46 C11 43.03 11 40.06 11 37 C9.68 37 8.36 37 7 37 C7 39.97 7 42.94 7 46 C3.37 46 -0.26 46 -4 46 C-4 32.14 -4 18.28 -4 4 C-2.68 4 -1.36 4 0 4 C0 2.68 0 1.36 0 0 Z M2 8 C2 8.66 2 9.32 2 10 C2.66 10 3.32 10 4 10 C4 9.34 4 8.68 4 8 C3.34 8 2.68 8 2 8 Z M6 8 C6 8.66 6 9.32 6 10 C6.66 10 7.32 10 8 10 C8 9.34 8 8.68 8 8 C7.34 8 6.68 8 6 8 Z M10 8 C10 8.66 10 9.32 10 10 C10.66 10 11.32 10 12 10 C12 9.34 12 8.68 12 8 C11.34 8 10.68 8 10 8 Z M14 8 C14 8.66 14 9.32 14 10 C14.66 10 15.32 10 16 10 C16 9.34 16 8.68 16 8 C15.34 8 14.68 8 14 8 Z M2 13 C2 14.32 2 15.64 2 17 C2.66 17 3.32 17 4 17 C4 15.68 4 14.36 4 13 C3.34 13 2.68 13 2 13 Z M6 13 C6 14.32 6 15.64 6 17 C6.66 17 7.32 17 8 17 C8 15.68 8 14.36 8 13 C7.34 13 6.68 13 6 13 Z M10 13 C10 14.32 10 15.64 10 17 C10.66 17 11.32 17 12 17 C12 15.68 12 14.36 12 13 C11.34 13 10.68 13 10 13 Z M14 13 C14 14.32 14 15.64 14 17 C14.66 17 15.32 17 16 17 C16 15.68 16 14.36 16 13 C15.34 13 14.68 13 14 13 Z M2 19 C2 20.32 2 21.64 2 23 C2.66 23 3.32 23 4 23 C4 21.68 4 20.36 4 19 C3.34 19 2.68 19 2 19 Z M6 19 C6 20.32 6 21.64 6 23 C6.66 23 7.32 23 8 23 C8 21.68 8 20.36 8 19 C7.34 19 6.68 19 6 19 Z M10 19 C10 20.32 10 21.64 10 23 C10.66 23 11.32 23 12 23 C12 21.68 12 20.36 12 19 C11.34 19 10.68 19 10 19 Z M14 19 C14 20.32 14 21.64 14 23 C14.66 23 15.32 23 16 23 C16 21.68 16 20.36 16 19 C15.34 19 14.68 19 14 19 Z M2 25 C2 26.32 2 27.64 2 29 C2.66 29 3.32 29 4 29 C4 27.68 4 26.36 4 25 C3.34 25 2.68 25 2 25 Z M6 25 C6 26.32 6 27.64 6 29 C6.66 29 7.32 29 8 29 C8 27.68 8 26.36 8 25 C7.34 25 6.68 25 6 25 Z M10 25 C10 26.32 10 27.64 10 29 C10.66 29 11.32 29 12 29 C12 27.68 12 26.36 12 25 C11.34 25 10.68 25 10 25 Z M14 25 C14 26.32 14 27.64 14 29 C14.66 29 15.32 29 16 29 C16 27.68 16 26.36 16 25 C15.34 25 14.68 25 14 25 Z M2 31 C2 32.32 2 33.64 2 35 C2.66 35 3.32 35 4 35 C4 33.68 4 32.36 4 31 C3.34 31 2.68 31 2 31 Z M6 31 C6 32.32 6 33.64 6 35 C6.66 35 7.32 35 8 35 C8 33.68 8 32.36 8 31 C7.34 31 6.68 31 6 31 Z M10 31 C10 32.32 10 33.64 10 35 C10.66 35 11.32 35 12 35 C12 33.68 12 32.36 12 31 C11.34 31 10.68 31 10 31 Z M14 31 C14 32.32 14 33.64 14 35 C14.66 35 15.32 35 16 35 C16 33.68 16 32.36 16 31 C15.34 31 14.68 31 14 31 Z M2 37 C2 38.65 2 40.3 2 42 C2.66 42 3.32 42 4 42 C4 40.35 4 38.7 4 37 C3.34 37 2.68 37 2 37 Z M14 37 C14 38.65 14 40.3 14 42 C14.66 42 15.32 42 16 42 C16 40.35 16 38.7 16 37 C15.34 37 14.68 37 14 37 Z " fill="#000000" transform="translate(8,2)"/>
<path d="M0 0 C4.62 0 9.24 0 14 0 C14 11.22 14 22.44 14 34 C9.38 34 4.76 34 0 34 C0 32.68 0 31.36 0 30 C0.66 30 1.32 30 2 30 C2 29.34 2 28.68 2 28 C1.34 28 0.68 28 0 28 C0 27.34 0 26.68 0 26 C0.66 26 1.32 26 2 26 C2 25.34 2 24.68 2 24 C1.34 24 0.68 24 0 24 C0 23.34 0 22.68 0 22 C0.66 22 1.32 22 2 22 C2 21.34 2 20.68 2 20 C1.34 20 0.68 20 0 20 C0 19.34 0 18.68 0 18 C0.66 18 1.32 18 2 18 C2 17.34 2 16.68 2 16 C1.34 16 0.68 16 0 16 C0 15.34 0 14.68 0 14 C0.66 14 1.32 14 2 14 C2 13.34 2 12.68 2 12 C1.34 12 0.68 12 0 12 C0 11.34 0 10.68 0 10 C0.66 10 1.32 10 2 10 C2 9.34 2 8.68 2 8 C1.34 8 0.68 8 0 8 C0 7.34 0 6.68 0 6 C0.66 6 1.32 6 2 6 C2 5.34 2 4.68 2 4 C1.34 4 0.68 4 0 4 C0 2.68 0 1.36 0 0 Z M4 4 C4 4.66 4 5.32 4 6 C4.66 6 5.32 6 6 6 C6 5.34 6 4.68 6 4 C5.34 4 4.68 4 4 4 Z M8 4 C8 4.66 8 5.32 8 6 C8.66 6 9.32 6 10 6 C10 5.34 10 4.68 10 4 C9.34 4 8.68 4 8 4 Z M4 8 C4 8.66 4 9.32 4 10 C4.66 10 5.32 10 6 10 C6 9.34 6 8.68 6 8 C5.34 8 4.68 8 4 8 Z M8 8 C8 8.66 8 9.32 8 10 C8.66 10 9.32 10 10 10 C10 9.34 10 8.68 10 8 C9.34 8 8.68 8 8 8 Z M4 12 C4 12.66 4 13.32 4 14 C4.66 14 5.32 14 6 14 C6 13.34 6 12.68 6 12 C5.34 12 4.68 12 4 12 Z M8 12 C8 12.66 8 13.32 8 14 C8.66 14 9.32 14 10 14 C10 13.34 10 12.68 10 12 C9.34 12 8.68 12 8 12 Z M4 16 C4 16.66 4 17.32 4 18 C4.66 18 5.32 18 6 18 C6 17.34 6 16.68 6 16 C5.34 16 4.68 16 4 16 Z M8 16 C8 16.66 8 17.32 8 18 C8.66 18 9.32 18 10 18 C10 17.34 10 16.68 10 16 C9.34 16 8.68 16 8 16 Z M4 20 C4 20.66 4 21.32 4 22 C4.66 22 5.32 22 6 22 C6 21.34 6 20.68 6 20 C5.34 20 4.68 20 4 20 Z M8 20 C8 20.66 8 21.32 8 22 C8.66 22 9.32 22 10 22 C10 21.34 10 20.68 10 20 C9.34 20 8.68 20 8 20 Z M4 24 C4 24.66 4 25.32 4 26 C4.66 26 5.32 26 6 26 C6 25.34 6 24.68 6 24 C5.34 24 4.68 24 4 24 Z M8 24 C8 24.66 8 25.32 8 26 C8.66 26 9.32 26 10 26 C10 25.34 10 24.68 10 24 C9.34 24 8.68 24 8 24 Z M4 28 C4 28.66 4 29.32 4 30 C4.66 30 5.32 30 6 30 C6 29.34 6 28.68 6 28 C5.34 28 4.68 28 4 28 Z M8 28 C8 28.66 8 29.32 8 30 C8.66 30 9.32 30 10 30 C10 29.34 10 28.68 10 28 C9.34 28 8.68 28 8 28 Z " fill="#000000" transform="translate(32,14)"/>
</svg>
